# xmcd
#
# Track frame offsets:
#	150
#	16560
#	31347
#	43115
#	51145
#	65015
#	85150
#	94817
#	105477
#	132222
#	146385
#	157695
#	170080
#	186222
#	200870
#	212602
#	220645
#	234357
#	254470
#	264057
#	274827
#	301562
#	315730
#	326977
#
# Disc length: 4520 seconds
#
# Revision: 13
# Processed by: cddbd v1.5.2PL0 Copyright (c) Steve Scherf et al.
# Submitted via: EZCDAudioConverter 3.0.7.1
#
DISCID=4811a618
DTITLE=John Mayall and the Bluesbreakers - Bluesbreakers with Eric Clapton
DYEAR=1966
DGENRE=Blues
TTITLE0=All Your Love [mono]
TTITLE1=Hideaway [mono]
TTITLE2=Little Girl [mono]
TTITLE3=Another Man [mono]
TTITLE4=Double Crossing Time [mono]
TTITLE5=What'd I Say [mono]
TTITLE6=Key to Love [mono]
TTITLE7=Parchman Farm [mono]
TTITLE8=Have You Heard [mono]
TTITLE9=Ramblin' on My Mind [mono]
TTITLE10=Steppin' Out [mono]
TTITLE11=It Ain't Right [mono]
TTITLE12=All Your Love [stereo]
TTITLE13=Hideaway [stereo]
TTITLE14=Little Girl [stereo]
TTITLE15=Another Man [stereo]
TTITLE16=Double Crossing Time [stereo]
TTITLE17=What'd I Say [stereo]
TTITLE18=Key to Love [stereo]
TTITLE19=Parchman Farm [stereo]
TTITLE20=Have You Heard [stereo]
TTITLE21=Ramblin' on My Mind [stereo]
TTITLE22=Steppin' Out [stereo]
TTITLE23=It Ain't Right [stereo]
EXTD=
EXTT0=
EXTT1=
EXTT2=
EXTT3=
EXTT4=
EXTT5=
EXTT6=
EXTT7=
EXTT8=
EXTT9=
EXTT10=
EXTT11=
EXTT12=
EXTT13=
EXTT14=
EXTT15=
EXTT16=
EXTT17=
EXTT18=
EXTT19=
EXTT20=
EXTT21=
EXTT22=
EXTT23=
PLAYORDER=
